<?xml version="1.0" encoding="UTF-8"?>
<svg width="1580px" height="1489px" viewBox="0 0 1580 1489" xmlns="http://www.w3.org/2000/svg" xmlns:xlink="http://www.w3.org/1999/xlink" version="1.1">
 <!-- Generated by Pixelmator Pro 1.4 -->
 <path id="path" d="M826.5 1457 C590.982 1457 381.215 1349.587 245.99 1182.301 298.586 1193.883 353.31 1200 409.5 1200 817.362 1200 1148 877.869 1148 480.5 1148 312.589 1088.961 158.114 990.008 35.699 1319.187 108.189 1565 394.876 1565 737.5 1565 1134.869 1234.362 1457 826.5 1457 Z" fill="#1f202a" fill-opacity="1" stroke="none"/>
 <path id="path-1" d="M322.344 1255.156 L322.359 1255.141 337.391 1268.656 352.688 1281.688 368.219 1294.156 384.25 1306.344 400.766 1318.203 417.344 1329.422 434.531 1340.375 451.766 1350.703 469.469 1360.672 487.469 1370.156 505.922 1379.234 524.5 1387.75 543.219 1395.719 543.219 1395.703 562.516 1403.266 562.516 1403.281 581.766 1410.219 601.578 1416.75 621.328 1422.641 641.453 1428.047 661.984 1432.938 679.891 1436.719 700.75 1440.531 700.75 1440.547 721.563 1443.75 742.906 1446.422 764.109 1448.453 785.594 1449.906 807.469 1450.766 826.484 1451 850 1450.641 878.234 1449.25 906.141 1446.844 933.641 1443.438 951.75 1440.625 978.516 1435.641 978.516 1435.625 1005.313 1429.594 1031.516 1422.703 1057.109 1414.938 1082.703 1406.156 1107.438 1396.656 1131.953 1386.203 1156.156 1374.844 1179.484 1362.844 1202.688 1349.859 1225.156 1336.188 1246.891 1321.875 1268.406 1306.578 1289.188 1290.688 1309.141 1274.234 1328.656 1256.953 1347.531 1239.016 1365.719 1220.422 1383.359 1201.047 1400.016 1181.406 1416.203 1160.828 1431.406 1140.016 1445.953 1118.484 1459.719 1096.422 1472.672 1073.844 1484.906 1050.578 1492.438 1035.141 1503.141 1011.281 1512.984 986.984 1521.922 962.266 1529.938 937.141 1537.031 911.625 1543.219 885.516 1548.344 859.469 1551.219 841.828 1554.75 814.828 1557.203 787.984 1558.625 760.594 1558.984 742.219 1558.719 717.766 1557.656 694.125 1555.813 670.5 1552.188 639.813 1548.578 616.906 1544.188 594.063 1539.156 571.891 1531.281 542.406 1524.5 520.469 1514.531 492.141 1506.234 471.125 1494.047 443.344 1484.328 423.297 1473.891 403.391 1462.844 383.875 1447.031 358.203 1434.734 339.797 1417.234 315.547 1403.5 297.906 1384.297 275.031 1363.984 252.766 1343.109 231.688 1321.203 211.313 1298.422 191.813 1274.641 173.078 1250.344 155.531 1225.297 138.922 1205.906 127.047 1179.469 112.156 1152.281 98.281 1124.719 85.625 1103.516 76.813 1074.484 65.938 1045.344 56.406 1015.188 47.906 1015.188 47.891 1005.25 45.516 1010.672 52.484 1028.047 76.625 1044.453 101.484 1059.813 127.047 1074.125 153.234 1087.359 180.047 1099.469 207.453 1107.813 228.438 1117.922 256.813 1126.859 285.734 1134.563 315.125 1139.531 337.531 1145.047 367.703 1148.344 390.672 1151.578 421.547 1153.125 445.016 1153.984 476.531 1153.625 503.906 1152.172 531.719 1149.672 559.266 1146.109 586.5 1141.531 613.422 1135.953 639.984 1129.391 666.188 1121.859 692.016 1113.391 717.453 1103.984 742.453 1093.688 767.016 1082.5 791.125 1070.453 814.766 1057.531 837.906 1039.094 867.906 1024.281 889.828 1008.703 911.156 992.375 931.922 969.469 958.625 951.422 977.984 926.344 1002.703 906.719 1020.5 886.438 1037.625 858.469 1059.281 836.766 1074.719 814.484 1089.391 791.656 1103.281 768.266 1116.359 744.344 1128.672 719.953 1140.125 695.031 1150.734 661.172 1163.516 635.219 1172.078 608.844 1179.719 582.094 1186.406 554.953 1192.172 527.469 1196.969 499.625 1200.75 471.484 1203.531 443.031 1205.297 414.297 1206 383.078 1205.563 362.047 1204.563 330.906 1202.016 300.094 1198.234 269.703 1193.25 261.578 1191.594 266.766 1197.797 280.063 1212.688 293.688 1227.141 307.938 1241.453 Z" fill="none" stroke="#769eff" stroke-width="12" stroke-opacity="1" stroke-linejoin="round"/>
 <path id="path-2" d="M1551.516 616.344 L1547.125 593.5 1547.141 593.5 1542.063 571.125 1534.156 541.531 1527.406 519.703 1517.313 491.031 1508.984 469.922 1496.844 442.25 1486.938 421.828 1476.5 401.922 1465.344 382.219 1449.641 356.734 1437.094 337.953 1419.531 313.609 1405.797 295.969 1386.516 273 1366.203 250.734 1345.156 229.5 1323.063 208.953 1300.281 189.453 1276.5 170.719 1252.109 153.094 1226.859 136.359 1207.359 124.422 1180.938 109.531 1153.625 95.594 1125.859 82.844 1104.578 74 1075.547 63.125 1046.156 53.516 1016.109 45.047 997.625 40.625 1008.281 54.281 1025.578 78.328 1041.906 103.094 1057.219 128.531 1071.453 154.609 1084.641 181.328 1096.703 208.625 1105.016 229.484 1115.078 257.75 1123.984 286.547 1131.656 315.828 1136.594 338.125 1142.094 368.188 1145.375 391.031 1148.578 421.813 1150.125 445.156 1150.984 476.563 1150.625 503.797 1149.188 531.516 1146.688 558.938 1143.141 586.063 1138.594 612.859 1133.031 639.313 1126.484 665.406 1118.984 691.125 1110.563 716.453 1101.188 741.344 1090.953 765.813 1079.813 789.813 1067.797 813.344 1054.953 836.391 1036.563 866.281 1021.828 888.094 1006.313 909.344 990.047 930.016 967.234 956.625 949.281 975.891 924.281 1000.531 904.734 1018.25 884.547 1035.281 856.672 1056.875 835.063 1072.234 812.891 1086.844 790.141 1100.688 766.844 1113.719 743.031 1125.969 718.719 1137.375 693.922 1147.953 660.172 1160.688 634.328 1169.203 608.063 1176.813 581.406 1183.484 554.375 1189.234 527 1194 499.266 1197.781 471.234 1200.531 442.891 1202.297 414.281 1203 383.172 1202.563 362.25 1201.578 331.203 1199.031 300.531 1195.266 270.234 1190.297 253.766 1186.953 264.391 1199.641 277.781 1214.625 291.625 1229.313 291.609 1229.313 305.75 1243.516 320.344 1257.375 335.375 1270.891 350.672 1283.906 366.406 1296.547 382.5 1308.781 398.953 1320.594 415.813 1332 432.859 1342.859 450.375 1353.359 450.375 1353.375 468.078 1363.344 468.078 1363.328 486.219 1372.891 504.516 1381.891 523.25 1390.469 542.125 1398.5 561.344 1406.031 580.906 1413.094 580.906 1413.109 600.563 1419.578 620.625 1425.563 640.75 1430.969 661.219 1435.844 679.297 1439.656 700.219 1443.484 721.188 1446.719 742.531 1449.391 742.531 1449.406 763.875 1451.453 763.875 1451.438 785.563 1452.906 807.359 1453.766 826.484 1454 850.156 1453.641 878.484 1452.25 906.281 1449.859 906.281 1449.844 934 1446.406 952.125 1443.594 979.281 1438.531 1005.859 1432.563 1005.859 1432.547 1032.281 1425.594 1058.188 1417.734 1083.688 1408.984 1108.625 1399.406 1133.219 1388.922 1157.328 1377.609 1180.953 1365.453 1204.156 1352.469 1226.719 1338.75 1248.719 1324.266 1270.078 1309.094 1270.063 1309.078 1291 1293.063 1291 1293.078 1311.141 1276.469 1330.813 1259.047 1349.672 1241.125 1367.938 1222.453 1385.578 1203.078 1402.375 1183.25 1418.563 1162.672 1433.891 1141.703 1448.5 1120.063 1462.313 1097.906 1475.375 1075.141 1475.391 1075.141 1487.516 1052.063 1495.172 1036.359 1505.922 1012.406 1515.797 988.016 1524.813 963.078 1532.828 937.953 1539.953 912.328 1546.141 886.219 1551.313 859.953 1554.203 842.219 1557.719 815.344 1560.188 788.141 1561.625 760.641 1561.984 742.188 1561.719 717.641 1560.641 693.797 1560.656 693.797 1558.828 670.391 1555.141 639.344 Z" fill="none" stroke="#769eff" stroke-width="6" stroke-opacity="1" stroke-linejoin="round"/>
</svg>
