<?xml version="1.0" encoding="UTF-8"?>
<svg width="3360px" height="2100px" viewBox="0 0 3360 2100" xmlns="http://www.w3.org/2000/svg" xmlns:xlink="http://www.w3.org/1999/xlink" version="1.1">
 <!-- Generated by Pixelmator Pro 1.4 -->
 <defs>
  <path id="path" d="M1046.5 1875 C810.982 1875 601.215 1767.587 465.99 1600.301 518.586 1611.883 573.31 1618 629.5 1618 1037.362 1618 1368 1295.869 1368 898.5 1368 730.589 1308.961 576.114 1210.008 453.699 1539.187 526.189 1785 812.876 1785 1155.5 1785 1552.869 1454.362 1875 1046.5 1875 Z"/>
 </defs>
 <use id="эллипс" xlink:href="#path" fill="#1f202a" fill-opacity="1" stroke="none"/>
 <defs>
  <path id="stroke-path" d="M542.344 1673.156 L542.359 1673.141 557.391 1686.656 572.688 1699.688 588.219 1712.156 604.25 1724.344 620.766 1736.203 637.344 1747.422 654.531 1758.375 671.766 1768.703 689.469 1778.672 707.469 1788.156 725.922 1797.234 744.5 1805.75 763.219 1813.719 763.219 1813.703 782.516 1821.266 782.516 1821.281 801.766 1828.219 821.578 1834.75 841.328 1840.641 861.453 1846.047 881.984 1850.938 899.891 1854.719 920.75 1858.531 920.75 1858.547 941.563 1861.75 962.906 1864.422 984.109 1866.453 1005.594 1867.906 1027.469 1868.766 1046.484 1869 1070 1868.641 1098.234 1867.25 1126.141 1864.844 1153.641 1861.438 1171.75 1858.625 1198.516 1853.641 1198.516 1853.625 1225.313 1847.594 1251.516 1840.703 1277.109 1832.938 1302.703 1824.156 1327.438 1814.656 1351.953 1804.203 1376.156 1792.844 1399.484 1780.844 1422.688 1767.859 1445.156 1754.188 1466.891 1739.875 1488.406 1724.578 1509.188 1708.688 1529.141 1692.234 1548.656 1674.953 1567.531 1657.016 1585.719 1638.422 1603.359 1619.047 1620.016 1599.406 1636.203 1578.828 1651.406 1558.016 1665.953 1536.484 1679.719 1514.422 1692.672 1491.844 1704.906 1468.578 1712.438 1453.141 1723.141 1429.281 1732.984 1404.984 1741.922 1380.266 1749.938 1355.141 1757.031 1329.625 1763.219 1303.516 1768.344 1277.469 1771.219 1259.828 1774.75 1232.828 1777.203 1205.984 1778.625 1178.594 1778.984 1160.219 1778.719 1135.766 1777.656 1112.125 1775.813 1088.5 1772.188 1057.813 1768.578 1034.906 1764.188 1012.063 1759.156 989.891 1751.281 960.406 1744.5 938.469 1734.531 910.141 1726.234 889.125 1714.047 861.344 1704.328 841.297 1693.891 821.391 1682.844 801.875 1667.031 776.203 1654.734 757.797 1637.234 733.547 1623.5 715.906 1604.297 693.031 1583.984 670.766 1563.109 649.688 1541.203 629.313 1518.422 609.813 1494.641 591.078 1470.344 573.531 1445.297 556.922 1425.906 545.047 1399.469 530.156 1372.281 516.281 1344.719 503.625 1323.516 494.813 1294.484 483.938 1265.344 474.406 1235.188 465.906 1235.188 465.891 1225.25 463.516 1230.672 470.484 1248.047 494.625 1264.453 519.484 1279.813 545.047 1294.125 571.234 1307.359 598.047 1319.469 625.453 1327.813 646.438 1337.922 674.813 1346.859 703.734 1354.563 733.125 1359.531 755.531 1365.047 785.703 1368.344 808.672 1371.578 839.547 1373.125 863.016 1373.984 894.531 1373.625 921.906 1372.172 949.719 1369.672 977.266 1366.109 1004.5 1361.531 1031.422 1355.953 1057.984 1349.391 1084.188 1341.859 1110.016 1333.391 1135.453 1323.984 1160.453 1313.688 1185.016 1302.5 1209.125 1290.453 1232.766 1277.531 1255.906 1259.094 1285.906 1244.281 1307.828 1228.703 1329.156 1212.375 1349.922 1189.469 1376.625 1171.422 1395.984 1146.344 1420.703 1126.719 1438.5 1106.438 1455.625 1078.469 1477.281 1056.766 1492.719 1034.484 1507.391 1011.656 1521.281 988.266 1534.359 964.344 1546.672 939.953 1558.125 915.031 1568.734 881.172 1581.516 855.219 1590.078 828.844 1597.719 802.094 1604.406 774.953 1610.172 747.469 1614.969 719.625 1618.75 691.484 1621.531 663.031 1623.297 634.297 1624 603.078 1623.563 582.047 1622.563 550.906 1620.016 520.094 1616.234 489.703 1611.25 481.578 1609.594 486.766 1615.797 500.063 1630.688 513.688 1645.141 527.938 1659.453 Z"/>
 </defs>
 <use id="эллипс-1" stroke="#769eff" stroke-opacity="1" stroke-linecap="round" fill="none" stroke-width="12" xlink:href="#stroke-path"/>
 <defs>
  <path id="stroke-path-1" d="M1771.516 1034.344 L1767.125 1011.5 1767.141 1011.5 1762.063 989.125 1754.156 959.531 1747.406 937.703 1737.313 909.031 1728.984 887.922 1716.844 860.25 1706.938 839.828 1696.5 819.922 1685.344 800.219 1669.641 774.734 1657.094 755.953 1639.531 731.609 1625.797 713.969 1606.516 691 1586.203 668.734 1565.156 647.5 1543.063 626.953 1520.281 607.453 1496.5 588.719 1472.109 571.094 1446.859 554.359 1427.359 542.422 1400.938 527.531 1373.625 513.594 1345.859 500.844 1324.578 492 1295.547 481.125 1266.156 471.516 1236.109 463.047 1217.625 458.625 1228.281 472.281 1245.578 496.328 1261.906 521.094 1277.219 546.531 1291.453 572.609 1304.641 599.328 1316.703 626.625 1325.016 647.484 1335.078 675.75 1343.984 704.547 1351.656 733.828 1356.594 756.125 1362.094 786.188 1365.375 809.031 1368.578 839.813 1370.125 863.156 1370.984 894.563 1370.625 921.797 1369.188 949.516 1366.688 976.938 1363.141 1004.063 1358.594 1030.859 1353.031 1057.313 1346.484 1083.406 1338.984 1109.125 1330.563 1134.453 1321.188 1159.344 1310.953 1183.813 1299.813 1207.813 1287.797 1231.344 1274.953 1254.391 1256.563 1284.281 1241.828 1306.094 1226.313 1327.344 1210.047 1348.016 1187.234 1374.625 1169.281 1393.891 1144.281 1418.531 1124.734 1436.25 1104.547 1453.281 1076.672 1474.875 1055.063 1490.234 1032.891 1504.844 1010.141 1518.688 986.844 1531.719 963.031 1543.969 938.719 1555.375 913.922 1565.953 880.172 1578.688 854.328 1587.203 828.063 1594.813 801.406 1601.484 774.375 1607.234 747 1612 719.266 1615.781 691.234 1618.531 662.891 1620.297 634.281 1621 603.172 1620.563 582.25 1619.578 551.203 1617.031 520.531 1613.266 490.234 1608.297 473.766 1604.953 484.391 1617.641 497.781 1632.625 511.625 1647.313 511.609 1647.313 525.75 1661.516 540.344 1675.375 555.375 1688.891 570.672 1701.906 586.406 1714.547 602.5 1726.781 618.953 1738.594 635.813 1750 652.859 1760.859 670.375 1771.359 670.375 1771.375 688.078 1781.344 688.078 1781.328 706.219 1790.891 724.516 1799.891 743.25 1808.469 762.125 1816.5 781.344 1824.031 800.906 1831.094 800.906 1831.109 820.563 1837.578 840.625 1843.563 860.75 1848.969 881.219 1853.844 899.297 1857.656 920.219 1861.484 941.188 1864.719 962.531 1867.391 962.531 1867.406 983.875 1869.453 983.875 1869.438 1005.563 1870.906 1027.359 1871.766 1046.484 1872 1070.156 1871.641 1098.484 1870.25 1126.281 1867.859 1126.281 1867.844 1154 1864.406 1172.125 1861.594 1199.281 1856.531 1225.859 1850.563 1225.859 1850.547 1252.281 1843.594 1278.188 1835.734 1303.688 1826.984 1328.625 1817.406 1353.219 1806.922 1377.328 1795.609 1400.953 1783.453 1424.156 1770.469 1446.719 1756.75 1468.719 1742.266 1490.078 1727.094 1490.063 1727.078 1511 1711.063 1511 1711.078 1531.141 1694.469 1550.813 1677.047 1569.672 1659.125 1587.938 1640.453 1605.578 1621.078 1622.375 1601.25 1638.563 1580.672 1653.891 1559.703 1668.5 1538.063 1682.313 1515.906 1695.375 1493.141 1695.391 1493.141 1707.516 1470.063 1715.172 1454.359 1725.922 1430.406 1735.797 1406.016 1744.813 1381.078 1752.828 1355.953 1759.953 1330.328 1766.141 1304.219 1771.313 1277.953 1774.203 1260.219 1777.719 1233.344 1780.188 1206.141 1781.625 1178.641 1781.984 1160.188 1781.719 1135.641 1780.641 1111.797 1780.656 1111.797 1778.828 1088.391 1775.141 1057.344 Z"/>
 </defs>
 <use id="эллипс-2" stroke="#769eff" stroke-opacity="1" stroke-linecap="round" fill="none" stroke-width="6" xlink:href="#stroke-path-1"/>
</svg>
