<?xml version="1.0" encoding="UTF-8"?>
<svg width="150px" height="150px" viewBox="0 0 150 150" xmlns="http://www.w3.org/2000/svg" xmlns:xlink="http://www.w3.org/1999/xlink" version="1.1">
 <!-- Generated by Pixelmator Pro 1.4 -->
 <defs>
  <path id="path" d="M75 150 C47.029 150 22.636 134.687 9.742 111.988 17.351 114.588 25.51 116 34 116 75.421 116 109 82.421 109 41 109 27.55 105.458 14.927 99.258 4.012 128.774 14.095 150 42.068 150 75 150 116.421 116.421 150 75 150 Z"/>
 </defs>
 <use id="эллипс" xlink:href="#path" fill="#769dff" fill-opacity="1" stroke="none"/>
 <defs>
  <path id="stroke-path" d="M84.641 143.328 L94.688 141.141 104.172 137.547 112.797 132.719 120.859 126.547 125.594 121.922 128.609 118.438 134.422 110.031 138.906 101.031 142 91.484 143.703 81.188 143.859 70.766 142.313 59.797 140.109 52.141 135.75 42.313 130.031 33.406 123.047 25.5 117.109 20.359 111.047 16.219 112.578 21.281 114.125 29.078 115 41.938 114.688 48.297 113.563 56.297 112.172 62.266 109.734 69.781 106.578 77.016 102.766 83.828 99.453 88.719 94.609 94.75 89.172 100.313 83.203 105.359 75.172 110.781 66.438 115.25 57.125 118.672 47.359 120.922 39.156 121.859 28.875 121.859 23.984 121.25 26.5 124.078 33.313 129.984 40.719 134.906 48.938 138.922 57.516 141.781 66.688 143.5 74.953 143.984 Z"/>
 </defs>
 <use id="эллипс-1" stroke="#769eff" stroke-opacity="1" stroke-linecap="round" fill="none" stroke-width="12" xlink:href="#stroke-path"/>
</svg>
